<?xml version="1.0" encoding="utf-8"?>
<svg xmlns="http://www.w3.org/2000/svg" viewBox="118.4513 367.6333 209.9219 52.9888" width="209.922px" height="52.9888px" preserveAspectRatio="none"><defs><style type="text/css">
	.st0{fill:#F2F4F7;}
	.st1{fill:#091B35;}
	.st2{fill:#BB5DF9;}
	.st3{fill:#16E0BD;}
	.st4{fill:#07F9A2;}
	.st5{fill:#0C5149;}
	.st6{fill:#0D192B;}
	.st7{fill:#FC440F;}
	.st8{fill:#A90448;}
	.st9{fill:#FB3640;}
	.st10{fill:#248F8D;}
	.st11{fill:#C04CFD;}
	.st12{fill:#F2FF49;}
</style><style type="text/css">
	.st0{fill:#F2F4F7;}
	.st1{fill:#091B35;}
	.st2{fill:#BB5DF9;}
	.st3{fill:#16E0BD;}
	.st4{fill:#07F9A2;}
	.st5{fill:#0C5149;}
	.st6{fill:#0D192B;}
	.st7{fill:#FC440F;}
	.st8{fill:#A90448;}
	.st9{fill:#FB3640;}
	.st10{fill:#248F8D;}
	.st11{fill:#C04CFD;}
	.st12{fill:#F2FF49;}
</style></defs><g transform="matrix(0.1615069955587387, 0, 0, 0.1615069955587387, 68.36639404296875, 306.9131164550781)" style="" id="object-1"><g><g><path class="st1" d="M822.79,427.42h-61.11V649h31.5v-90.12h29.61c22.01,0,40.49-6.1,53.47-17.63 c13-11.56,19.87-28.04,19.87-47.65C896.13,452.78,868.03,427.42,822.79,427.42z M822.19,529.77h-29.01v-72.34h29.01 c26.4,0,41.54,13.18,41.54,36.17C863.73,516.59,848.59,529.77,822.19,529.77z"/><path class="st1" d="M991.68,485.01c-17.33,0-31.34,5.88-40.81,17.05c0.24-8.03,0.46-16.33,0.46-25.17v-49.47h-30.31V649h30.31 v-94.82c0-26.4,11.58-40.35,33.48-40.35c21.71,0,33.19,13.95,33.19,40.35V649h30.31v-96.62 C1048.31,509.57,1027.67,485.01,991.68,485.01z"/><path class="st1" d="M1209.63,509.57c-11.78-14.88-32.19-23.96-54.43-23.96c-45.38,0-79.61,35.76-79.61,83.19 s34.22,83.19,79.61,83.19c22.24,0,42.65-9.08,54.43-23.96l0.26,20.97h27.6V488.59h-27.6L1209.63,509.57z M1158.18,623.47 c-30.3,0-52.29-22.99-52.29-54.67c0-31.85,21.99-54.97,52.29-54.97c30.56,0,51.09,22.09,51.09,54.97 C1209.27,601.5,1188.74,623.47,1158.18,623.47z"/><path class="st1" d="M1273.72,539.55V649h30.31V539.25c0-16.79,5.79-22.74,22.15-22.74h16.65v-27.92h-19.03 C1290.1,488.59,1273.72,505.26,1273.72,539.55z"/><path class="st1" d="M1459.92,583.71c0,26.2-11.58,40.05-33.48,40.05c-21.71,0-33.19-13.85-33.19-40.05v-95.12h-30.31v96.02 c0,42.56,23.74,67.97,63.49,67.97c39.94,0,63.79-25.41,63.79-67.97v-96.02h-30.31V583.71z"/><path class="st1" d="M1578.5,558.65l-10.45-6.87c-14.72-9.62-19.94-15.71-19.94-23.27c0-13.37,14.8-16.18,27.22-16.18 c3.1,0,9.83,0.15,20.15,1.19l1.57,0.16v-24.9l-1.23-0.17c-8.43-1.16-17.09-1.8-24.36-1.8c-32.72,0-53.05,16.1-53.05,42.01 c0,17.23,9.12,30.53,30.48,44.46l10.45,6.87c14.32,9.35,19.64,16.23,19.64,25.36c0,12.67-9.03,18.57-28.41,18.57 c-7.83,0-18.54-0.76-29.37-2.08l-1.6-0.2v27.07l1.28,0.13c10.97,1.13,22.52,1.8,30.88,1.8c36.39,0,58.12-17.04,58.12-45.59 C1609.88,586.68,1600.78,573.2,1578.5,558.65z"/></g></g><g><g><g><path class="st1" d="M498.39,375.96v48.46c-77.09,0-139.82,62.72-139.82,139.82h-48.46 C310.12,460.42,394.58,375.96,498.39,375.96z"/></g><g><path class="st1" d="M498.39,655.59v48.46c-77.09,0-139.82-62.72-139.82-139.82h48.46 C407.03,614.68,447.94,655.59,498.39,655.59z"/></g><g><path class="st1" d="M498.39,472.87C498.39,472.87,498.39,472.87,498.39,472.87l0-48.46c0,0,0,0,0,0 c77.09,0,139.82,62.72,139.82,139.82h-48.46C589.75,513.77,548.85,472.87,498.39,472.87z"/></g><g><path class="st7" d="M498.39,704.04v-48.46c50.46,0,91.36-40.9,91.36-91.36h48.46C638.21,641.32,575.49,704.04,498.39,704.04z"/></g><g><g><path class="st1" d="M498.39,564.23c-11.58-27.67-19.43-36.68-19.25-45.68c-0.18-9,7.67-18.01,19.25-45.68 c-27.67,11.58-36.68,19.43-45.68,19.25c-9,0.18-18.01-7.67-45.68-19.25c11.58,27.67,19.43,36.68,19.25,45.68 c0.18,9-7.67,18.01-19.25,45.68c27.67-11.58,36.68-19.43,45.68-19.25C461.72,544.79,470.72,552.65,498.39,564.23z"/></g></g></g></g></g></svg>