<?xml version="1.0" encoding="utf-8"?>
<svg xmlns="http://www.w3.org/2000/svg" viewBox="95.4961 175.7936 108.5446 108.5446" width="108.545px" height="108.545px"><defs><style type="text/css">
	.st0{fill:#F2F4F7;}
	.st1{fill:#001675;}
	.st2{fill:#BB5DF9;}
	.st3{fill:#16E0BD;}
	.st4{fill:#07F9A2;}
	.st5{fill:#0C5149;}
	.st6{fill:#0D192B;}
	.st7{fill:#FC440F;}
	.st8{fill:#A90448;}
	.st9{fill:#FB3640;}
	.st10{fill:#248F8D;}
	.st11{fill:#C04CFD;}
	.st12{fill:#F2FF49;}
</style></defs><g transform="matrix(0.1774590164422989, 0, 0, 0.1774590164422989, 64.58806610107423, 134.2379913330078)" style="" id="object-0"><path class="st1" d="M525.17,234.17v90.34c-143.73,0-260.66,116.93-260.66,260.66h-90.34 C174.17,391.63,331.63,234.17,525.17,234.17z"/><path class="st1" d="M525.17,755.49v90.34c-143.73,0-260.66-116.93-260.66-260.66h90.34C354.84,679.24,431.1,755.49,525.17,755.49z "/><path class="st1" d="M525.17,414.84C525.17,414.84,525.17,414.84,525.17,414.84l0-90.34c0,0,0,0,0,0 c143.73,0,260.66,116.93,260.66,260.66h-90.34C695.49,491.1,619.24,414.84,525.17,414.84z"/><path class="st7" d="M525.17,845.83v-90.34c94.07,0,170.32-76.26,170.32-170.32h90.34C785.83,728.9,668.9,845.83,525.17,845.83z"/><g><g><path class="st1" d="M525.17,585.17c-21.59-51.59-36.23-68.38-35.9-85.16c-0.33-16.79,14.3-33.57,35.9-85.16 c-51.59,21.59-68.38,36.23-85.16,35.9c-16.79,0.33-33.57-14.3-85.16-35.9c21.59,51.59,36.23,68.38,35.9,85.16 c0.33,16.79-14.3,33.57-35.9,85.16c51.59-21.59,68.38-36.23,85.16-35.9C456.79,548.94,473.58,563.58,525.17,585.17z"/></g></g></g></svg>